<svg t="1745897004962" class="icon" viewBox="0 0 1024 1024" version="1.1" xmlns="http://www.w3.org/2000/svg" p-id="8610"
    width="200" height="200">
    <path
        d="M932.378947 490.442105H520.982456c-19.761404 0-37.726316-16.168421-37.726316-37.726316v-5.389473c0-19.761404 16.168421-37.726316 37.726316-37.726316h411.396491c19.761404 0 37.726316 16.168421 37.726316 37.726316v5.389473c0 21.557895-16.168421 37.726316-37.726316 37.726316zM819.2 652.126316H520.982456c-19.761404 0-37.726316-16.168421-37.726316-37.726316v-5.389474c0-19.761404 16.168421-37.726316 37.726316-37.726315h298.217544c19.761404 0 37.726316 16.168421 37.726316 37.726315v5.389474c0 21.557895-16.168421 37.726316-37.726316 37.726316zM713.207018 813.810526H520.982456c-19.761404 0-37.726316-16.168421-37.726316-37.726315v-5.389474c0-19.761404 16.168421-37.726316 37.726316-37.726316h192.224562c19.761404 0 37.726316 16.168421 37.726315 37.726316v5.389474c0 21.557895-17.964912 37.726316-37.726315 37.726315z"
        p-id="8611"></path>
    <path
        d="M334.147368 1013.221053c-19.761404 0-34.133333-16.168421-34.133333-34.133334V283.845614L82.638596 132.940351c-25.150877-16.168421-34.133333-46.708772-25.150877-73.65614 8.982456-28.74386 35.929825-46.708772 66.470176-46.708772h754.526316c30.540351 0 57.487719 19.761404 66.470175 46.708772s-1.796491 55.691228-25.150877 73.65614l-231.747369 161.68421c-16.168421 10.778947-37.726316 7.185965-48.505263-8.982456-10.778947-16.168421-7.185965-35.929825 8.982456-48.505263l228.154386-158.091228H129.347368l240.729825 168.870175v729.375439c0 19.761404-16.168421 35.929825-35.929825 35.929825z"
        p-id="8612"></path>
</svg>