<svg t="1745896917736" class="icon" viewBox="0 0 1024 1024" version="1.1" xmlns="http://www.w3.org/2000/svg" p-id="7558"
    width="200" height="200">
    <path
        d="M469.333333 799.509333a21.333333 21.333333 0 0 1 7.914667 1.536l52.181333 20.864a21.333333 21.333333 0 0 1 9.450667 32.213334l-52.181333 73.045333A21.333333 21.333333 0 0 1 448 914.773333v-93.930666a21.333333 21.333333 0 0 1 21.333333-21.333334zM980.16 102.485333a42.666667 42.666667 0 0 1 3.904 28.501334l-142.293333 675.882666a42.666667 42.666667 0 0 1-54.933334 31.786667l-282.069333-91.669333a21.333333 21.333333 0 0 1-10.368-33.216L810.666667 298.666667 383.573333 685.056a42.666667 42.666667 0 0 1-41.813333 8.96L75.413333 607.424a42.666667 42.666667 0 0 1-6.528-78.421333l853.76-444.672a42.666667 42.666667 0 0 1 57.536 18.133333z"
        p-id="7559"></path>
</svg>